<svg width="11" height="10" viewBox="0 0 11 10" fill="none" xmlns="http://www.w3.org/2000/svg">
<path d="M5.93013 9.03919C6.14167 9.25072 6.48463 9.25072 6.69617 9.03919L10.3524 5.38294C10.3561 5.37922 10.3598 5.37545 10.3634 5.37163L10.3635 5.37148C10.41 5.32229 10.4454 5.26653 10.4699 5.20731C10.4964 5.14351 10.511 5.07356 10.5111 5.0002C10.5111 5.0001 10.5111 5.00001 10.5111 4.99992C10.5111 4.99973 10.5111 4.99955 10.5111 4.99936C10.511 4.92604 10.4964 4.85612 10.4699 4.79236C10.4437 4.72916 10.405 4.66991 10.3539 4.61838C10.3533 4.61782 10.3528 4.61727 10.3522 4.61671L6.69617 0.960653L6.68471 0.949523C6.47243 0.749185 6.13789 0.752896 5.93013 0.960653L5.919 0.972109C5.71867 1.18439 5.72238 1.51893 5.93013 1.72669L8.6617 4.45825H1.0319L1.01747 4.45844C0.724986 4.46609 0.490234 4.70559 0.490234 4.99992C0.490234 5.29907 0.732746 5.54159 1.0319 5.54159H8.6617L5.93013 8.27316L5.919 8.28461C5.71867 8.4969 5.72238 8.83143 5.93013 9.03919Z" fill="black"/>
</svg>
