<svg width="20" height="20" viewBox="0 0 20 20" fill="none" xmlns="http://www.w3.org/2000/svg">
<path d="M10.5285 14.9714C10.7889 15.2318 11.211 15.2318 11.4713 14.9714L15.9713 10.4714C15.9759 10.4669 15.9804 10.4622 15.9848 10.4575L15.985 10.4573C16.0422 10.3968 16.0858 10.3282 16.116 10.2553C16.1485 10.1768 16.1665 10.0907 16.1666 10.0004C16.1666 10.0003 16.1666 10.0002 16.1666 10C16.1666 9.99981 16.1666 9.99958 16.1666 9.99935C16.1665 9.90911 16.1485 9.82306 16.1159 9.74459C16.0837 9.6668 16.0361 9.59387 15.9731 9.53045C15.9725 9.52977 15.9718 9.52908 15.9711 9.5284L11.4713 5.02864L11.4572 5.01494C11.1959 4.76837 10.7842 4.77294 10.5285 5.02864L10.5148 5.04274C10.2682 5.30401 10.2728 5.71575 10.5285 5.97145L13.8904 9.33337H4.49992L4.48216 9.33361C4.12218 9.34302 3.83325 9.63779 3.83325 10C3.83325 10.3682 4.13173 10.6667 4.49992 10.6667H13.8904L10.5285 14.0286L10.5148 14.0427C10.2682 14.304 10.2728 14.7157 10.5285 14.9714Z" fill="#670BFF"/>
</svg>
